<svg width="32" height="32" viewBox="0 0 32 32" fill="none" xmlns="http://www.w3.org/2000/svg">
<g clip-path="url(#clip0_276_905)">
<path d="M31.1604 24.6871L24.6834 20.3677C23.8615 19.824 22.7597 20.0029 22.1521 20.7789L20.2654 23.2046C20.0229 23.5243 19.5822 23.6171 19.2314 23.4222L18.8726 23.2244C17.6829 22.5759 16.2026 21.7686 13.2201 18.785C10.2376 15.8015 9.42864 14.3201 8.78018 13.1326L8.58339 12.7737C8.38586 12.423 8.47685 11.9804 8.79667 11.736L11.2208 9.84987C11.9964 9.24215 12.1756 8.14069 11.6325 7.3185L7.31314 0.841582C6.75654 0.00433147 5.63983 -0.247006 4.77814 0.270979L2.06973 1.89793C1.21874 2.39823 0.59439 3.20848 0.327617 4.1589C-0.647675 7.7125 0.0860277 13.8455 9.12044 22.8809C16.3071 30.0671 21.6573 31.9996 25.3346 31.9996C26.1809 32.0032 27.0239 31.8931 27.8409 31.6722C28.7915 31.4057 29.6019 30.7813 30.1019 29.9301L31.7305 27.2233C32.2492 26.3614 31.998 25.244 31.1604 24.6871ZM30.8116 26.6761L29.1868 29.3845C28.8278 29.9989 28.2449 30.4507 27.5603 30.6452C24.2798 31.5458 18.5484 30.7998 9.87495 22.1264C1.20155 13.453 0.455598 7.72212 1.35628 4.44105C1.551 3.75565 2.00331 3.17205 2.61846 2.81248L5.32688 1.18766C5.70076 0.962689 6.18544 1.07174 6.42696 1.43506L8.7733 4.95772L10.7426 7.91141C10.9785 8.26804 10.901 8.74603 10.5645 9.00993L8.13983 10.896C7.40194 11.4603 7.19122 12.4812 7.64553 13.2914L7.83807 13.6412C8.51959 14.8912 9.3669 16.4461 12.4603 19.5391C15.5537 22.6319 17.1082 23.4793 18.3576 24.1607L18.7079 24.3538C19.5181 24.808 20.5391 24.5974 21.1033 23.8595L22.9894 21.4348C23.2533 21.0985 23.7311 21.0211 24.0879 21.2567L30.5643 25.576C30.9278 25.8174 31.0369 26.3023 30.8116 26.6761Z" fill="#63AEFF"/>
<path d="M18.1324 5.336C23.1367 5.34156 27.1921 9.39702 27.1978 14.4013C27.1978 14.6959 27.4365 14.9346 27.731 14.9346C28.0255 14.9346 28.2642 14.6959 28.2642 14.4013C28.258 8.80823 23.7255 4.27566 18.1324 4.26953C17.8379 4.26953 17.5992 4.50825 17.5992 4.80277C17.5992 5.09728 17.8379 5.336 18.1324 5.336Z" fill="#63AEFF"/>
<path d="M18.1324 8.5357C21.3704 8.53952 23.9944 11.1635 23.9982 14.4015C23.9982 14.696 24.237 14.9348 24.5315 14.9348C24.826 14.9348 25.0647 14.696 25.0647 14.4015C25.0603 10.5747 21.9592 7.47361 18.1324 7.46924C17.8379 7.46924 17.5992 7.70795 17.5992 8.00247C17.5992 8.29699 17.8379 8.5357 18.1324 8.5357Z" fill="#63AEFF"/>
<path d="M18.1324 11.7349C19.6042 11.7367 20.7969 12.9294 20.7987 14.4012C20.7987 14.6957 21.0375 14.9344 21.3319 14.9344C21.6264 14.9344 21.8652 14.6957 21.8652 14.4012C21.8628 12.3406 20.193 10.6708 18.1324 10.6685C17.8379 10.6685 17.5992 10.9072 17.5992 11.2017C17.5992 11.4962 17.8379 11.7349 18.1324 11.7349Z" fill="#63AEFF"/>
</g>
<defs>
<clipPath id="clip0_276_905">
<rect width="32" height="32" fill="white"/>
</clipPath>
</defs>
</svg>
