<svg width="35" height="35" viewBox="0 0 35 35" fill="none" xmlns="http://www.w3.org/2000/svg">
<g clip-path="url(#clip0_276_877)">
<path d="M32.4703 16.8165H27.4109V0.683647C27.4109 0.407202 27.2443 0.157895 26.9889 0.0520746C26.7334 -0.0538141 26.4393 0.00483825 26.2439 0.200209L24.3074 2.1367L22.3709 0.200278C22.104 -0.0666657 21.6711 -0.0666657 21.4041 0.200278L19.4676 2.13676L17.5314 0.200278C17.2644 -0.0666657 16.8316 -0.0666657 16.5646 0.200278L14.6281 2.13676L12.6915 0.200278C12.4246 -0.0666657 11.9917 -0.0666657 11.7248 0.200278L9.7883 2.13676L7.85195 0.200278C7.58501 -0.0666657 7.15216 -0.0666657 6.88514 0.200278L4.94866 2.13676L3.01224 0.200278C2.74694 -0.0650251 2.31785 -0.0663923 2.05022 0.196518C1.90967 0.334672 1.84152 0.518764 1.84624 0.701626V31.4455C1.84624 33.4055 3.44079 35 5.40079 35H29.5984C29.5985 35 29.5986 35 29.5987 35C29.5989 35 29.5991 35 29.5993 35C31.5593 35 33.1539 33.4055 33.1539 31.4455V17.5C33.1539 17.1224 32.8478 16.8165 32.4703 16.8165ZM5.40079 33.6328C4.19459 33.6328 3.21336 32.6515 3.21336 31.4454V2.33487L4.46529 3.5868C4.73223 3.85375 5.16508 3.85375 5.4321 3.5868L7.36858 1.65032L9.30507 3.5868C9.57201 3.85375 10.0049 3.85375 10.2719 3.5868L12.2084 1.65032L14.1449 3.5868C14.4119 3.85375 14.8447 3.85375 15.1116 3.5868L17.0481 1.65032L18.9846 3.5868C19.2516 3.85375 19.6844 3.85375 19.9514 3.5868L21.8879 1.65032L23.8244 3.5868C24.0914 3.85375 24.5243 3.85375 24.7911 3.5868L26.0441 2.33391V17.5C26.0441 17.5062 26.0448 17.5123 26.045 17.5185V31.4454C26.045 32.2699 26.3281 33.0291 26.8009 33.6328H5.40079ZM31.7867 31.4454C31.7867 32.6515 30.8054 33.6328 29.5993 33.6328C28.3931 33.6328 27.4118 32.6515 27.4118 31.4454V18.1836H31.7867V31.4454Z" fill="#63AEFF"/>
<path d="M21.0159 11H19.6836C19.306 11 19 11.306 19 11.6836C19 12.0611 19.306 12.3672 19.6836 12.3672H21.0159C21.3935 12.3672 21.6995 12.0611 21.6995 11.6836C21.6995 11.306 21.3935 11 21.0159 11Z" fill="#63AEFF"/>
<path d="M21.8422 18.4575H11.0125C10.635 18.4575 10.3289 18.7636 10.3289 19.1411C10.3289 19.5187 10.635 19.8247 11.0125 19.8247H21.8422C22.2198 19.8247 22.5258 19.5187 22.5258 19.1411C22.5257 18.7636 22.2198 18.4575 21.8422 18.4575Z" fill="#63AEFF"/>
<path d="M17.5133 11H6.68359C6.30605 11 6 11.306 6 11.6836C6 12.0611 6.30605 12.3672 6.68359 12.3672H17.5133C17.8909 12.3672 18.1969 12.0611 18.1969 11.6836C18.1968 11.306 17.8909 11 17.5133 11Z" fill="#63AEFF"/>
<path d="M7.8981 18.6578C7.77095 18.5307 7.59458 18.4575 7.41479 18.4575C7.23501 18.4575 7.05864 18.5307 6.93149 18.6578C6.80435 18.785 6.7312 18.9613 6.7312 19.1411C6.7312 19.3209 6.80435 19.4973 6.93149 19.6244C7.05864 19.7516 7.23501 19.8247 7.41479 19.8247C7.59458 19.8247 7.77095 19.7516 7.8981 19.6244C8.02524 19.4973 8.09839 19.3209 8.09839 19.1411C8.09839 18.9613 8.02524 18.785 7.8981 18.6578Z" fill="#63AEFF"/>
<path d="M21.8422 22.9692H11.0125C10.635 22.9692 10.3289 23.2753 10.3289 23.6528C10.3289 24.0304 10.635 24.3364 11.0125 24.3364H21.8422C22.2198 24.3364 22.5258 24.0304 22.5258 23.6528C22.5257 23.2753 22.2198 22.9692 21.8422 22.9692Z" fill="#63AEFF"/>
<path d="M7.8981 23.1695C7.77095 23.0424 7.59458 22.9692 7.41479 22.9692C7.23501 22.9692 7.05864 23.0424 6.93149 23.1695C6.80435 23.2967 6.7312 23.473 6.7312 23.6528C6.7312 23.8326 6.80435 24.009 6.93149 24.1361C7.05864 24.2633 7.23501 24.3364 7.41479 24.3364C7.59458 24.3364 7.77095 24.2633 7.8981 24.1361C8.02524 24.009 8.09839 23.8326 8.09839 23.6528C8.09839 23.473 8.02524 23.2967 7.8981 23.1695Z" fill="#63AEFF"/>
<path d="M21.8422 27.481H11.0125C10.635 27.481 10.3289 27.787 10.3289 28.1646C10.3289 28.5421 10.635 28.8481 11.0125 28.8481H21.8422C22.2198 28.8481 22.5258 28.5421 22.5258 28.1646C22.5258 27.787 22.2198 27.481 21.8422 27.481Z" fill="#63AEFF"/>
<path d="M7.8981 27.6813C7.77095 27.5541 7.59458 27.481 7.41479 27.481C7.23501 27.481 7.05864 27.5541 6.93149 27.6813C6.80435 27.8084 6.7312 27.9848 6.7312 28.1646C6.7312 28.3443 6.80435 28.5207 6.93149 28.6479C7.05864 28.775 7.23501 28.8481 7.41479 28.8481C7.59458 28.8481 7.77095 28.775 7.8981 28.6479C8.02524 28.5207 8.09839 28.3443 8.09839 28.1646C8.09839 27.9848 8.02524 27.8084 7.8981 27.6813Z" fill="#63AEFF"/>
</g>
<defs>
<clipPath id="clip0_276_877">
<rect width="35" height="35" fill="white"/>
</clipPath>
</defs>
</svg>
