<svg width="108" height="108" viewBox="0 0 108 108" fill="none" xmlns="http://www.w3.org/2000/svg">
<circle cx="54" cy="54" r="50" stroke="#F5FAFF" stroke-width="8"/>
<path d="M78.1935 73.0535H77.3871V36.9193C77.3871 36.4949 77.0258 36.1505 76.5806 36.1505H75.7016C75.5379 35.2464 75.0919 34.413 74.3976 33.751L74.1613 33.5258V30.7688C74.1613 30.3444 73.8 30 73.3548 30H68.5161C68.071 30 67.7097 30.3444 67.7097 30.7688V33.5258L67.4734 33.751C66.779 34.413 66.3331 35.2464 66.1694 36.1505H64.4113C64.2476 35.2464 63.8016 34.413 63.1073 33.751L62.871 33.5258V30.7688C62.871 30.3444 62.5097 30 62.0645 30H57.2258C56.7806 30 56.4194 30.3444 56.4194 30.7688V33.5258L56.1831 33.751C55.4887 34.413 55.0427 35.2464 54.879 36.1505H53.121C52.9573 35.2464 52.5113 34.413 51.8169 33.751L51.5806 33.5258V30.7688C51.5806 30.3444 51.2194 30 50.7742 30H45.9355C45.4903 30 45.129 30.3444 45.129 30.7688V33.5258L44.8927 33.751C44.1984 34.413 43.7524 35.2464 43.5887 36.1505H41.8306C41.6669 35.2464 41.221 34.413 40.5266 33.751L40.2903 33.5258V30.7688C40.2903 30.3444 39.929 30 39.4839 30H34.6452C34.2 30 33.8387 30.3444 33.8387 30.7688V33.5258L33.6024 33.751C32.9081 34.413 32.4621 35.2464 32.2984 36.1505H31.4194C30.9742 36.1505 30.6129 36.4949 30.6129 36.9193V73.0535H29.8065C29.3613 73.0535 29 73.3979 29 73.8223V76.8976C29 77.322 29.3613 77.6664 29.8065 77.6664H78.1935C78.6387 77.6664 79 77.322 79 76.8976V73.8223C79 73.3979 78.6387 73.0535 78.1935 73.0535ZM66.0968 73.0535V63.8278H75.7742V73.0535H66.0968ZM43.5161 48.4515H53.1935V62.2901H43.5161V48.4515ZM41.9032 62.2901H32.2258V48.4515H41.9032V62.2901ZM75.7742 37.6881V46.9139H66.0968V37.6881H75.7742ZM75.7742 62.2901H66.0968V48.4515H75.7742V62.2901ZM64.4839 62.2901H54.8064V48.4515H64.4839V62.2901ZM64.4839 46.9139H54.8064V37.6881H64.4839V46.9139ZM53.1935 46.9139H43.5161V37.6881H53.1935V46.9139ZM53.1935 63.8278V73.0535H43.5161V63.8278H53.1935ZM54.8064 63.8278H64.4839V73.0535H54.8064V63.8278ZM72.5484 31.5376V33.0753H69.3226V31.5376H72.5484ZM68.6137 34.8381L68.85 34.6129H73.021L73.2573 34.8381C73.6444 35.2072 73.9024 35.66 74.0419 36.1505H67.8298C67.9685 35.66 68.2266 35.2072 68.6137 34.8381ZM61.2581 31.5376V33.0753H58.0323V31.5376H61.2581ZM57.3234 34.8381L57.5597 34.6129H61.7306L61.9669 34.8381C62.354 35.2072 62.6121 35.66 62.7516 36.1505H56.5395C56.6782 35.66 56.9363 35.2072 57.3234 34.8381ZM49.9677 31.5376V33.0753H46.7419V31.5376H49.9677ZM46.0331 34.8381L46.2694 34.6129H50.4403L50.6766 34.8381C51.0637 35.2072 51.3218 35.66 51.4613 36.1505H45.2492C45.3879 35.66 45.646 35.2072 46.0331 34.8381ZM38.6774 31.5376V33.0753H35.4516V31.5376H38.6774ZM34.7427 34.8381L34.979 34.6129H39.15L39.3863 34.8381C39.7734 35.2072 40.0315 35.66 40.171 36.1505H33.9581C34.0976 35.66 34.3556 35.2072 34.7427 34.8381ZM41.9032 37.6881V46.9139H32.2258V37.6881H41.9032ZM32.2258 63.8278H41.9032V73.0535H32.2258V63.8278ZM77.3871 76.1288H30.6129V74.5911H77.3871V76.1288Z" fill="#63AEFF"/>
<path d="M37.0644 69.9781C36.62 69.9781 36.2579 69.6329 36.2579 69.2093V67.6717C36.2579 67.2481 36.62 66.9029 37.0644 66.9029C37.5088 66.9029 37.8708 67.2481 37.8708 67.6717H39.4838C39.4838 66.4001 38.3983 65.3652 37.0644 65.3652C35.7305 65.3652 34.645 66.4001 34.645 67.6717V69.2093C34.645 70.4809 35.7305 71.5157 37.0644 71.5157C38.3983 71.5157 39.4838 70.4809 39.4838 69.2093H37.8708C37.8708 69.6329 37.5088 69.9781 37.0644 69.9781Z" fill="#63AEFF"/>
<path d="M47.5484 71.5162V68.6738L47.6839 68.8676C47.9831 69.2958 48.7267 69.2958 49.0259 68.8676L49.1613 68.6738V71.5162H50.7742V66.1344C50.7742 65.7961 50.5412 65.4963 50.2017 65.3987C49.8621 65.3003 49.4944 65.4263 49.2968 65.7077L48.3549 67.0547L47.413 65.7077C47.2154 65.4263 46.8468 65.2995 46.5081 65.3987C46.1686 65.4963 45.9355 65.7961 45.9355 66.1344V71.5162H47.5484Z" fill="#63AEFF"/>
<path d="M60.4516 65.3652V66.9029C60.4516 67.3265 60.0895 67.6717 59.6452 67.6717C59.2008 67.6717 58.8387 67.3265 58.8387 66.9029V65.3652H57.2258V66.9029C57.2258 67.9039 57.9024 68.7496 58.8387 69.0678V71.5157H60.4516V69.0678C61.3879 68.7496 62.0645 67.9039 62.0645 66.9029V65.3652H60.4516Z" fill="#63AEFF"/>
<path d="M71.7169 68.4405C72.7049 67.7393 73.3549 66.6269 73.3549 65.3652H71.7419C71.7419 66.3662 71.0653 67.2119 70.129 67.5302V65.3652H68.5161V71.5157H70.129V69.3508C71.0653 69.6691 71.7419 70.5148 71.7419 71.5157H73.3549C73.3549 70.2541 72.7049 69.1416 71.7169 68.4405Z" fill="#63AEFF"/>
</svg>
