<svg width="108" height="108" viewBox="0 0 108 108" fill="none" xmlns="http://www.w3.org/2000/svg">
<circle cx="54" cy="54" r="50" stroke="#F5FAFF" stroke-width="8"/>
<path d="M75.0938 44.625H71.9688V36.8125C71.9688 35.951 71.2678 35.25 70.4062 35.25H67.2812V31.3438C67.2812 30.0515 66.2298 29 64.9375 29H43.0625C41.7702 29 40.7188 30.0515 40.7188 31.3438V35.25H37.5938C36.7322 35.25 36.0312 35.951 36.0312 36.8125V44.625H32.9062C30.7523 44.625 29 46.3773 29 48.5312V65.7188C29 67.8727 30.7523 69.625 32.9062 69.625H40.7188V76.6562C40.7188 77.9485 41.7702 79 43.0625 79H64.9375C66.2298 79 67.2812 77.9485 67.2812 76.6562V69.625H75.0938C77.2477 69.625 79 67.8727 79 65.7188V48.5312C79 46.3773 77.2477 44.625 75.0938 44.625ZM70.4062 36.8125V44.625H67.2812V36.8125H70.4062ZM42.2812 31.3438C42.2812 30.913 42.6317 30.5625 43.0625 30.5625H64.9375C65.3683 30.5625 65.7188 30.913 65.7188 31.3438V44.625H42.2812C42.2812 44.4653 42.2812 31.9091 42.2812 31.3438ZM37.5938 36.8125H40.7188V44.625H37.5938V36.8125ZM65.7188 76.6562C65.7188 77.087 65.3683 77.4375 64.9375 77.4375H43.0625C42.6317 77.4375 42.2812 77.087 42.2812 76.6562V63.375H65.7188V76.6562ZM77.4375 65.7188C77.4375 67.011 76.386 68.0625 75.0938 68.0625H67.2812V63.375H68.8438C69.2752 63.375 69.625 63.0252 69.625 62.5938C69.625 62.1623 69.2752 61.8125 68.8438 61.8125C66.0452 61.8125 40.4372 61.8125 39.1562 61.8125C38.7248 61.8125 38.375 62.1623 38.375 62.5938C38.375 63.0252 38.7248 63.375 39.1562 63.375H40.7188V68.0625H32.9062C31.614 68.0625 30.5625 67.011 30.5625 65.7188V48.5312C30.5625 47.239 31.614 46.1875 32.9062 46.1875H75.0938C76.386 46.1875 77.4375 47.239 77.4375 48.5312V65.7188Z" fill="#63AEFF"/>
<path d="M73.5312 47.75C72.239 47.75 71.1875 48.8015 71.1875 50.0938C71.1875 51.386 72.239 52.4375 73.5312 52.4375C74.8235 52.4375 75.875 51.386 75.875 50.0938C75.875 48.8015 74.8235 47.75 73.5312 47.75ZM73.5312 50.875C73.1005 50.875 72.75 50.5245 72.75 50.0938C72.75 49.663 73.1005 49.3125 73.5312 49.3125C73.962 49.3125 74.3125 49.663 74.3125 50.0938C74.3125 50.5245 73.962 50.875 73.5312 50.875Z" fill="#63AEFF"/>
<path d="M67.2812 47.75C65.989 47.75 64.9375 48.8015 64.9375 50.0938C64.9375 51.386 65.989 52.4375 67.2812 52.4375C68.5735 52.4375 69.625 51.386 69.625 50.0938C69.625 48.8015 68.5735 47.75 67.2812 47.75ZM67.2812 50.875C66.8505 50.875 66.5 50.5245 66.5 50.0938C66.5 49.663 66.8505 49.3125 67.2812 49.3125C67.712 49.3125 68.0625 49.663 68.0625 50.0938C68.0625 50.5245 67.712 50.875 67.2812 50.875Z" fill="#63AEFF"/>
<path d="M62.5938 65.7188H46.1875C45.7561 65.7188 45.4062 66.0686 45.4062 66.5C45.4062 66.9314 45.7561 67.2812 46.1875 67.2812H62.5938C63.0252 67.2812 63.375 66.9314 63.375 66.5C63.375 66.0686 63.0252 65.7188 62.5938 65.7188Z" fill="#63AEFF"/>
<path d="M62.5938 69.625H46.1875C45.7561 69.625 45.4062 69.9748 45.4062 70.4062C45.4062 70.8377 45.7561 71.1875 46.1875 71.1875H62.5938C63.0252 71.1875 63.375 70.8377 63.375 70.4062C63.375 69.9748 63.0252 69.625 62.5938 69.625Z" fill="#63AEFF"/>
<path d="M62.5938 73.5312H46.1875C45.7561 73.5312 45.4062 73.8811 45.4062 74.3125C45.4062 74.7439 45.7561 75.0938 46.1875 75.0938H62.5938C63.0252 75.0938 63.375 74.7439 63.375 74.3125C63.375 73.8811 63.0252 73.5312 62.5938 73.5312Z" fill="#63AEFF"/>
</svg>
