<svg width="108" height="108" viewBox="0 0 108 108" fill="none" xmlns="http://www.w3.org/2000/svg">
<circle cx="54" cy="54" r="50" stroke="#F5FAFF" stroke-width="8"/>
<g clip-path="url(#clip0_1026_2)">
<path d="M29.158 33.5865L32.4926 39.4217C32.6051 39.6189 32.7934 39.7616 33.0135 39.8168L36.1245 40.5945L46.7946 51.2646L47.9736 50.086L37.1365 39.2492C37.0298 39.1422 36.8961 39.0664 36.7497 39.0298L33.7604 38.2798L30.9213 33.3087L33.3554 30.8747L38.3285 33.7165L39.0788 36.7057C39.1152 36.8525 39.1913 36.9866 39.298 37.0933L50.1351 47.9304L51.3137 46.7514L40.6436 36.0813L39.8658 32.972C39.8106 32.7515 39.668 32.5629 39.4708 32.4501L33.6352 29.1158C33.3098 28.9306 32.9003 28.9855 32.6349 29.2499L29.3007 32.5845C29.0325 32.8482 28.9742 33.2583 29.158 33.5865Z" fill="#63AEFF"/>
<path d="M63.8161 45.4291L45.4768 63.7687L44.2979 62.5897L62.6375 44.2505L63.8161 45.4291Z" fill="#63AEFF"/>
<path d="M42.2671 64.4175C42.1162 64.1665 41.8453 64.0132 41.5525 64.0132H36.5509C36.2584 64.0132 35.9871 64.1665 35.8366 64.4175L33.3356 68.5854C33.1769 68.8495 33.1769 69.1797 33.3356 69.4441L35.8366 73.612C35.9871 73.8627 36.2584 74.0163 36.5509 74.0163H41.5525C41.8453 74.0163 42.1162 73.8627 42.2671 73.612L44.7677 69.4441C44.9265 69.1797 44.9265 68.8495 44.7677 68.5854L42.2671 64.4175ZM41.0809 72.349H37.0228L35.0221 69.0148L37.0228 65.6801H41.0809L43.0816 69.0148L41.0809 72.349Z" fill="#63AEFF"/>
<path d="M69.0613 49.0082C74.5669 49.0268 79.0455 44.5783 79.064 39.0727C79.0668 38.2346 78.9639 37.3999 78.7578 36.5875C78.6467 36.1407 78.1944 35.8688 77.7475 35.9799C77.6008 36.0166 77.467 36.0923 77.36 36.199L72.1709 41.3847L68.0537 40.0127L66.6807 35.8965L71.8698 30.7064C72.1952 30.3806 72.1949 29.8528 71.8691 29.5274C71.7618 29.4201 71.6267 29.3439 71.4789 29.3076C66.1395 27.9554 60.7155 31.1875 59.3633 36.5265C59.1579 37.3365 59.0554 38.1691 59.0581 39.0048C59.0602 39.6612 59.1277 40.3155 59.2608 40.9581L41.0045 59.214C40.3619 59.0813 39.7076 59.0137 39.0516 59.0113C33.5267 59.0113 29.0481 63.4899 29.0481 69.0148C29.0481 74.5393 33.5267 79.0179 39.0516 79.0179C44.5761 79.0179 49.0547 74.5393 49.0547 69.0148C49.0526 68.3584 48.9847 67.7041 48.852 67.0615L53.2226 62.6909L55.134 64.6024C55.4598 64.9278 55.9872 64.9278 56.313 64.6024L56.7297 64.1854C57.0952 63.8222 57.6861 63.8222 58.0517 64.1854C58.4169 64.5496 58.4176 65.1408 58.0534 65.506C58.053 65.5063 58.0523 65.507 58.0517 65.5077L57.635 65.9244C57.3096 66.2498 57.3096 66.7776 57.635 67.103L67.5791 77.0471C70.1946 79.6866 74.4544 79.7058 77.0939 77.0903C79.7331 74.4748 79.7523 70.2147 77.1368 67.5755C77.1227 67.5611 77.1083 67.5467 77.0939 67.5323L67.1498 57.5886C66.8244 57.2631 66.2966 57.2631 65.9712 57.5886L65.5545 58.0052C65.1886 58.3687 64.5981 58.3687 64.2322 58.0052C63.8673 57.641 63.8663 57.0498 64.2305 56.6849C64.2312 56.6843 64.2318 56.6839 64.2322 56.6832L64.6492 56.2662C64.9746 55.9408 64.9746 55.413 64.6492 55.0876L62.7377 53.1761L67.1083 48.8056C67.7509 48.9383 68.4052 49.0062 69.0613 49.0082ZM72.3365 77.3509C71.7309 77.3499 71.1305 77.2405 70.5636 77.0276L77.074 70.5168C78.0565 73.1302 76.7345 76.0451 74.1211 77.0276C73.5508 77.2419 72.9462 77.3516 72.3365 77.3509ZM62.8927 55.6853C61.9696 56.7865 62.1143 58.4277 63.2154 59.3505C64.1831 60.1615 65.5936 60.1608 66.5603 59.3481L75.9153 68.7113C76.0168 68.8132 76.1118 68.9205 76.2037 69.0295L69.0763 76.1569C68.9669 76.0653 68.8596 75.9703 68.7578 75.8685L59.3956 66.5056C60.3187 65.4045 60.174 63.7632 59.0729 62.8404C58.1051 62.0291 56.6944 62.0301 55.7276 62.8425L54.394 61.5089L61.5587 54.3548L62.8927 55.6853ZM66.2589 47.3012L47.3483 66.208C47.1408 66.4151 47.0575 66.7158 47.1281 67.0001C48.2718 71.4914 45.5579 76.0595 41.0662 77.2028C36.575 78.3464 32.0069 75.6325 30.8632 71.1409C29.7199 66.6496 32.4338 62.0815 36.9254 60.9379C38.2841 60.5922 39.7076 60.5922 41.0662 60.9379C41.3505 61.0075 41.6506 60.9242 41.8584 60.7181L60.7645 41.8109C60.9717 41.6038 61.055 41.3031 60.9837 41.0191C59.8479 36.5803 62.5254 32.0613 66.9643 30.9252C67.8031 30.7108 68.6707 30.6285 69.5348 30.6824L65.1375 35.0814C64.9143 35.3043 64.8361 35.6345 64.9359 35.9339L66.6028 40.9358C66.6862 41.1844 66.8816 41.3799 67.1306 41.4625L72.1325 43.1298C72.4315 43.2296 72.7618 43.1518 72.985 42.9289L77.3823 38.5316C77.3923 38.6907 77.3974 38.8481 77.3974 39.0048C77.4207 43.5852 73.7267 47.3173 69.1463 47.3409C68.4382 47.3444 67.7324 47.2573 67.0466 47.0817C66.7623 47.0107 66.4615 47.0937 66.2544 47.3008H66.2589V47.3012Z" fill="#63AEFF"/>
<path d="M72.1523 70.9262L70.9733 72.1051L62.6375 63.7693L63.8161 62.5903L72.1523 70.9262Z" fill="#63AEFF"/>
</g>
<defs>
<clipPath id="clip0_1026_2">
<rect width="50" height="50" fill="white" transform="translate(29 29)"/>
</clipPath>
</defs>
</svg>
